<mxfile host="Electron" agent="Mozilla/5.0 (Windows NT 10.0; Win64; x64) AppleWebKit/537.36 (KHTML, like Gecko) draw.io/24.7.8 Chrome/128.0.6613.36 Electron/32.0.1 Safari/537.36" version="24.7.8">
  <diagram name="Page-1" id="q5gKrhV2WKv8pvfnoQvh">
    <mxGraphModel dx="3866" dy="1923" grid="1" gridSize="10" guides="1" tooltips="1" connect="1" arrows="1" fold="1" page="1" pageScale="1" pageWidth="827" pageHeight="1169" math="0" shadow="0">
      <root>
        <mxCell id="0" />
        <mxCell id="1" parent="0" />
        <object placeholders="1" c4Name="MES API" c4Type="Container" c4Technology="C#" c4Description="- Assigns orders on operators&#xa;- Shows list of orders&#xa;- Calculates price of the order" label="&lt;font style=&quot;font-size: 16px&quot;&gt;&lt;b&gt;%c4Name%&lt;/b&gt;&lt;/font&gt;&lt;div&gt;[%c4Type%: %c4Technology%]&lt;/div&gt;&lt;br&gt;&lt;div&gt;&lt;font style=&quot;font-size: 11px&quot;&gt;&lt;font color=&quot;#E6E6E6&quot;&gt;%c4Description%&lt;/font&gt;&lt;/div&gt;" id="6bDfexBDMjg7O7AECw8N-1">
          <mxCell style="rounded=1;whiteSpace=wrap;html=1;fontSize=11;labelBackgroundColor=none;fillColor=#23A2D9;fontColor=#ffffff;align=center;arcSize=10;strokeColor=#0E7DAD;metaEdit=1;resizable=0;points=[[0.25,0,0],[0.5,0,0],[0.75,0,0],[1,0.25,0],[1,0.5,0],[1,0.75,0],[0.75,1,0],[0.5,1,0],[0.25,1,0],[0,0.75,0],[0,0.5,0],[0,0.25,0]];" parent="1" vertex="1">
            <mxGeometry x="530" y="890" width="240" height="120" as="geometry" />
          </mxCell>
        </object>
        <object placeholders="1" c4Name="Messages Queue" c4Type="Container" c4Technology="RabbitMQ" c4Description="Send messages about new orders, changes of statuses between containers, has several topics" label="&lt;font style=&quot;font-size: 16px&quot;&gt;&lt;b&gt;%c4Name%&lt;/b&gt;&lt;/font&gt;&lt;div&gt;[%c4Type%:&amp;nbsp;%c4Technology%]&lt;/div&gt;&lt;br&gt;&lt;div&gt;&lt;font style=&quot;font-size: 11px&quot;&gt;&lt;font color=&quot;#E6E6E6&quot;&gt;%c4Description%&lt;/font&gt;&lt;/div&gt;" id="6bDfexBDMjg7O7AECw8N-2">
          <mxCell style="shape=cylinder3;size=15;direction=south;whiteSpace=wrap;html=1;boundedLbl=1;rounded=0;labelBackgroundColor=none;fillColor=#23A2D9;fontSize=12;fontColor=#ffffff;align=center;strokeColor=#0E7DAD;metaEdit=1;points=[[0.5,0,0],[1,0.25,0],[1,0.5,0],[1,0.75,0],[0.5,1,0],[0,0.75,0],[0,0.5,0],[0,0.25,0]];resizable=0;" parent="1" vertex="1">
            <mxGeometry x="1440" y="640" width="240" height="120" as="geometry" />
          </mxCell>
        </object>
        <object placeholders="1" c4Name="Internet Shop" c4Type="Container" c4Technology="Vue, TypeScript, Threejs" c4Description="User can make an order, upload 3d model, work in 3d editor" label="&lt;font style=&quot;font-size: 16px&quot;&gt;&lt;b&gt;%c4Name%&lt;/b&gt;&lt;/font&gt;&lt;div&gt;[%c4Type%:&amp;nbsp;%c4Technology%]&lt;/div&gt;&lt;br&gt;&lt;div&gt;&lt;font style=&quot;font-size: 11px&quot;&gt;&lt;font color=&quot;#E6E6E6&quot;&gt;%c4Description%&lt;/font&gt;&lt;/div&gt;" id="6bDfexBDMjg7O7AECw8N-3">
          <mxCell style="shape=mxgraph.c4.webBrowserContainer2;whiteSpace=wrap;html=1;boundedLbl=1;rounded=0;labelBackgroundColor=none;strokeColor=#118ACD;fillColor=#23A2D9;strokeColor=#118ACD;strokeColor2=#0E7DAD;fontSize=12;fontColor=#ffffff;align=center;metaEdit=1;points=[[0.5,0,0],[1,0.25,0],[1,0.5,0],[1,0.75,0],[0.5,1,0],[0,0.75,0],[0,0.5,0],[0,0.25,0]];resizable=0;" parent="1" vertex="1">
            <mxGeometry x="520" y="260" width="240" height="160" as="geometry" />
          </mxCell>
        </object>
        <object placeholders="1" c4Name="MES" c4Type="Container" c4Technology="React, typescript" c4Description="provide interface to assign orders on operators, shows list of orders" label="&lt;font style=&quot;font-size: 16px&quot;&gt;&lt;b&gt;%c4Name%&lt;/b&gt;&lt;/font&gt;&lt;div&gt;[%c4Type%:&amp;nbsp;%c4Technology%]&lt;/div&gt;&lt;br&gt;&lt;div&gt;&lt;font style=&quot;font-size: 11px&quot;&gt;&lt;font color=&quot;#E6E6E6&quot;&gt;%c4Description%&lt;/font&gt;&lt;/div&gt;" id="6bDfexBDMjg7O7AECw8N-4">
          <mxCell style="shape=mxgraph.c4.webBrowserContainer2;whiteSpace=wrap;html=1;boundedLbl=1;rounded=0;labelBackgroundColor=none;strokeColor=#118ACD;fillColor=#23A2D9;strokeColor=#118ACD;strokeColor2=#0E7DAD;fontSize=12;fontColor=#ffffff;align=center;metaEdit=1;points=[[0.5,0,0],[1,0.25,0],[1,0.5,0],[1,0.75,0],[0.5,1,0],[0,0.75,0],[0,0.5,0],[0,0.25,0]];resizable=0;" parent="1" vertex="1">
            <mxGeometry x="530" y="1070" width="240" height="160" as="geometry" />
          </mxCell>
        </object>
        <mxCell id="6bDfexBDMjg7O7AECw8N-20" style="edgeStyle=orthogonalEdgeStyle;rounded=0;orthogonalLoop=1;jettySize=auto;html=1;exitX=1;exitY=0.75;exitDx=0;exitDy=0;exitPerimeter=0;" parent="1" source="6bDfexBDMjg7O7AECw8N-5" target="6bDfexBDMjg7O7AECw8N-4" edge="1">
          <mxGeometry relative="1" as="geometry" />
        </mxCell>
        <object placeholders="1" c4Name="Operator" c4Type="Person" c4Description="Takes order in work, manufactures jewerly " label="&lt;font style=&quot;font-size: 16px&quot;&gt;&lt;b&gt;%c4Name%&lt;/b&gt;&lt;/font&gt;&lt;div&gt;[%c4Type%]&lt;/div&gt;&lt;br&gt;&lt;div&gt;&lt;font style=&quot;font-size: 11px&quot;&gt;&lt;font color=&quot;#cccccc&quot;&gt;%c4Description%&lt;/font&gt;&lt;/div&gt;" id="6bDfexBDMjg7O7AECw8N-5">
          <mxCell style="html=1;fontSize=11;dashed=0;whiteSpace=wrap;fillColor=#083F75;strokeColor=#06315C;fontColor=#ffffff;shape=mxgraph.c4.person2;align=center;metaEdit=1;points=[[0.5,0,0],[1,0.5,0],[1,0.75,0],[0.75,1,0],[0.5,1,0],[0.25,1,0],[0,0.75,0],[0,0.5,0]];resizable=0;" parent="1" vertex="1">
            <mxGeometry x="80" y="960" width="200" height="180" as="geometry" />
          </mxCell>
        </object>
        <object placeholders="1" c4Name="Customer" c4Type="Person" c4Description="Description of external person." label="&lt;font style=&quot;font-size: 16px&quot;&gt;&lt;b&gt;%c4Name%&lt;/b&gt;&lt;/font&gt;&lt;div&gt;[%c4Type%]&lt;/div&gt;&lt;br&gt;&lt;div&gt;&lt;font style=&quot;font-size: 11px&quot;&gt;&lt;font color=&quot;#cccccc&quot;&gt;%c4Description%&lt;/font&gt;&lt;/div&gt;" id="6bDfexBDMjg7O7AECw8N-6">
          <mxCell style="html=1;fontSize=11;dashed=0;whiteSpace=wrap;fillColor=#6C6477;strokeColor=#4D4D4D;fontColor=#ffffff;shape=mxgraph.c4.person2;align=center;metaEdit=1;points=[[0.5,0,0],[1,0.5,0],[1,0.75,0],[0.75,1,0],[0.5,1,0],[0.25,1,0],[0,0.75,0],[0,0.5,0]];resizable=0;" parent="1" vertex="1">
            <mxGeometry x="80" y="250" width="200" height="180" as="geometry" />
          </mxCell>
        </object>
        <object placeholders="1" c4Name="API user" c4Type="Person" c4Description="Description of external person." label="&lt;font style=&quot;font-size: 16px&quot;&gt;&lt;b&gt;%c4Name%&lt;/b&gt;&lt;/font&gt;&lt;div&gt;[%c4Type%]&lt;/div&gt;&lt;br&gt;&lt;div&gt;&lt;font style=&quot;font-size: 11px&quot;&gt;&lt;font color=&quot;#cccccc&quot;&gt;%c4Description%&lt;/font&gt;&lt;/div&gt;" id="6bDfexBDMjg7O7AECw8N-7">
          <mxCell style="html=1;fontSize=11;dashed=0;whiteSpace=wrap;fillColor=#6C6477;strokeColor=#4D4D4D;fontColor=#ffffff;shape=mxgraph.c4.person2;align=center;metaEdit=1;points=[[0.5,0,0],[1,0.5,0],[1,0.75,0],[0.75,1,0],[0.5,1,0],[0.25,1,0],[0,0.75,0],[0,0.5,0]];resizable=0;" parent="1" vertex="1">
            <mxGeometry x="80" y="700" width="200" height="180" as="geometry" />
          </mxCell>
        </object>
        <object placeholders="1" c4Name="CRM" c4Type="Container" c4Technology="Vue, Typescript" c4Description="Description of web browser container role/responsibility." label="&lt;font style=&quot;font-size: 16px&quot;&gt;&lt;b&gt;%c4Name%&lt;/b&gt;&lt;/font&gt;&lt;div&gt;[%c4Type%:&amp;nbsp;%c4Technology%]&lt;/div&gt;&lt;br&gt;&lt;div&gt;&lt;font style=&quot;font-size: 11px&quot;&gt;&lt;font color=&quot;#E6E6E6&quot;&gt;%c4Description%&lt;/font&gt;&lt;/div&gt;" id="6bDfexBDMjg7O7AECw8N-9">
          <mxCell style="shape=mxgraph.c4.webBrowserContainer2;whiteSpace=wrap;html=1;boundedLbl=1;rounded=0;labelBackgroundColor=none;strokeColor=#118ACD;fillColor=#23A2D9;strokeColor=#118ACD;strokeColor2=#0E7DAD;fontSize=12;fontColor=#ffffff;align=center;metaEdit=1;points=[[0.5,0,0],[1,0.25,0],[1,0.5,0],[1,0.75,0],[0.5,1,0],[0,0.75,0],[0,0.5,0],[0,0.25,0]];resizable=0;" parent="1" vertex="1">
            <mxGeometry x="530" y="530" width="240" height="160" as="geometry" />
          </mxCell>
        </object>
        <object placeholders="1" c4Name="CRM API" c4Type="Container" c4Technology="SpringBoot" c4Description="Description of container role/responsibility." label="&lt;font style=&quot;font-size: 16px&quot;&gt;&lt;b&gt;%c4Name%&lt;/b&gt;&lt;/font&gt;&lt;div&gt;[%c4Type%: %c4Technology%]&lt;/div&gt;&lt;br&gt;&lt;div&gt;&lt;font style=&quot;font-size: 11px&quot;&gt;&lt;font color=&quot;#E6E6E6&quot;&gt;%c4Description%&lt;/font&gt;&lt;/div&gt;" id="6bDfexBDMjg7O7AECw8N-10">
          <mxCell style="rounded=1;whiteSpace=wrap;html=1;fontSize=11;labelBackgroundColor=none;fillColor=#23A2D9;fontColor=#ffffff;align=center;arcSize=10;strokeColor=#0E7DAD;metaEdit=1;resizable=0;points=[[0.25,0,0],[0.5,0,0],[0.75,0,0],[1,0.25,0],[1,0.5,0],[1,0.75,0],[0.75,1,0],[0.5,1,0],[0.25,1,0],[0,0.75,0],[0,0.5,0],[0,0.25,0]];" parent="1" vertex="1">
            <mxGeometry x="1090" y="550" width="240" height="120" as="geometry" />
          </mxCell>
        </object>
        <object placeholders="1" c4Name="Shop API" c4Type="Container" c4Technology="SpringBoot" c4Description="- provide list of shop items&#xa;- receives user generated or uploaded 3d file&#xa;- save information about order from customer perspective&#xa;" label="&lt;font style=&quot;font-size: 16px&quot;&gt;&lt;b&gt;%c4Name%&lt;/b&gt;&lt;/font&gt;&lt;div&gt;[%c4Type%: %c4Technology%]&lt;/div&gt;&lt;br&gt;&lt;div&gt;&lt;font style=&quot;font-size: 11px&quot;&gt;&lt;font color=&quot;#E6E6E6&quot;&gt;%c4Description%&lt;/font&gt;&lt;/div&gt;" id="6bDfexBDMjg7O7AECw8N-8">
          <mxCell style="rounded=1;whiteSpace=wrap;html=1;fontSize=11;labelBackgroundColor=none;fillColor=#23A2D9;fontColor=#ffffff;align=center;arcSize=10;strokeColor=#0E7DAD;metaEdit=1;resizable=0;points=[[0.25,0,0],[0.5,0,0],[0.75,0,0],[1,0.25,0],[1,0.5,0],[1,0.75,0],[0.75,1,0],[0.5,1,0],[0.25,1,0],[0,0.75,0],[0,0.5,0],[0,0.25,0]];" parent="1" vertex="1">
            <mxGeometry x="910" y="280" width="240" height="120" as="geometry" />
          </mxCell>
        </object>
        <object placeholders="1" c4Name="Shop DB" c4Type="Container" c4Technology="PostgreSQL" c4Description="Holds main information about work with customers and its orders&#xa;" label="&lt;font style=&quot;font-size: 16px&quot;&gt;&lt;b&gt;%c4Name%&lt;/b&gt;&lt;/font&gt;&lt;div&gt;[%c4Type%:&amp;nbsp;%c4Technology%]&lt;/div&gt;&lt;br&gt;&lt;div&gt;&lt;font style=&quot;font-size: 11px&quot;&gt;&lt;font color=&quot;#E6E6E6&quot;&gt;%c4Description%&lt;/font&gt;&lt;/div&gt;" id="6bDfexBDMjg7O7AECw8N-11">
          <mxCell style="shape=cylinder3;size=20;whiteSpace=wrap;html=1;boundedLbl=1;rounded=0;labelBackgroundColor=none;fillColor=#23A2D9;fontSize=12;fontColor=#ffffff;align=center;strokeColor=#0E7DAD;metaEdit=1;points=[[0.5,0,0],[1,0.25,0],[1,0.5,0],[1,0.75,0],[0.5,1,0],[0,0.75,0],[0,0.5,0],[0,0.25,0]];resizable=0;" parent="1" vertex="1">
            <mxGeometry x="1400" y="280" width="240" height="120" as="geometry" />
          </mxCell>
        </object>
        <mxCell id="6bDfexBDMjg7O7AECw8N-12" style="edgeStyle=orthogonalEdgeStyle;rounded=0;orthogonalLoop=1;jettySize=auto;html=1;entryX=0.196;entryY=1.008;entryDx=0;entryDy=0;entryPerimeter=0;" parent="1" source="6bDfexBDMjg7O7AECw8N-10" target="6bDfexBDMjg7O7AECw8N-11" edge="1">
          <mxGeometry relative="1" as="geometry">
            <Array as="points">
              <mxPoint x="1360" y="610" />
              <mxPoint x="1360" y="420" />
              <mxPoint x="1447" y="420" />
            </Array>
          </mxGeometry>
        </mxCell>
        <mxCell id="6bDfexBDMjg7O7AECw8N-13" style="edgeStyle=orthogonalEdgeStyle;rounded=0;orthogonalLoop=1;jettySize=auto;html=1;entryX=0;entryY=0.5;entryDx=0;entryDy=0;entryPerimeter=0;" parent="1" source="6bDfexBDMjg7O7AECw8N-8" target="6bDfexBDMjg7O7AECw8N-11" edge="1">
          <mxGeometry relative="1" as="geometry" />
        </mxCell>
        <mxCell id="6bDfexBDMjg7O7AECw8N-14" style="edgeStyle=orthogonalEdgeStyle;rounded=0;orthogonalLoop=1;jettySize=auto;html=1;entryX=0;entryY=0.5;entryDx=0;entryDy=0;entryPerimeter=0;" parent="1" source="6bDfexBDMjg7O7AECw8N-3" target="6bDfexBDMjg7O7AECw8N-8" edge="1">
          <mxGeometry relative="1" as="geometry" />
        </mxCell>
        <mxCell id="6bDfexBDMjg7O7AECw8N-16" style="edgeStyle=orthogonalEdgeStyle;rounded=0;orthogonalLoop=1;jettySize=auto;html=1;entryX=0.767;entryY=1;entryDx=0;entryDy=0;entryPerimeter=0;exitX=0.75;exitY=1;exitDx=0;exitDy=0;exitPerimeter=0;startArrow=classic;startFill=1;" parent="1" source="6bDfexBDMjg7O7AECw8N-10" target="6bDfexBDMjg7O7AECw8N-2" edge="1">
          <mxGeometry relative="1" as="geometry" />
        </mxCell>
        <mxCell id="6bDfexBDMjg7O7AECw8N-17" style="edgeStyle=orthogonalEdgeStyle;rounded=0;orthogonalLoop=1;jettySize=auto;html=1;entryX=0.617;entryY=-0.004;entryDx=0;entryDy=0;entryPerimeter=0;startArrow=classic;startFill=1;" parent="1" source="6bDfexBDMjg7O7AECw8N-1" target="6bDfexBDMjg7O7AECw8N-2" edge="1">
          <mxGeometry relative="1" as="geometry" />
        </mxCell>
        <mxCell id="6bDfexBDMjg7O7AECw8N-18" style="edgeStyle=orthogonalEdgeStyle;rounded=0;orthogonalLoop=1;jettySize=auto;html=1;entryX=0.5;entryY=1;entryDx=0;entryDy=0;entryPerimeter=0;" parent="1" source="6bDfexBDMjg7O7AECw8N-4" target="6bDfexBDMjg7O7AECw8N-1" edge="1">
          <mxGeometry relative="1" as="geometry" />
        </mxCell>
        <object placeholders="1" c4Name="Jewerly Store System" c4Type="SystemScopeBoundary" c4Application="Software System" label="&lt;font style=&quot;font-size: 16px&quot;&gt;&lt;b&gt;&lt;div style=&quot;text-align: left&quot;&gt;%c4Name%&lt;/div&gt;&lt;/b&gt;&lt;/font&gt;&lt;div style=&quot;text-align: left&quot;&gt;[%c4Application%]&lt;/div&gt;" id="6bDfexBDMjg7O7AECw8N-19">
          <mxCell style="rounded=1;fontSize=11;whiteSpace=wrap;html=1;dashed=1;arcSize=20;fillColor=none;strokeColor=#666666;fontColor=#333333;labelBackgroundColor=none;align=left;verticalAlign=bottom;labelBorderColor=none;spacingTop=0;spacing=10;dashPattern=8 4;metaEdit=1;rotatable=0;perimeter=rectanglePerimeter;noLabel=0;labelPadding=0;allowArrows=0;connectable=0;expand=0;recursiveResize=0;editable=1;pointerEvents=0;absoluteArcSize=1;points=[[0.25,0,0],[0.5,0,0],[0.75,0,0],[1,0.25,0],[1,0.5,0],[1,0.75,0],[0.75,1,0],[0.5,1,0],[0.25,1,0],[0,0.75,0],[0,0.5,0],[0,0.25,0]];" parent="1" vertex="1">
            <mxGeometry x="500" y="235" width="1220" height="1085" as="geometry" />
          </mxCell>
        </object>
        <mxCell id="6bDfexBDMjg7O7AECw8N-21" style="edgeStyle=orthogonalEdgeStyle;rounded=0;orthogonalLoop=1;jettySize=auto;html=1;entryX=0;entryY=0.5;entryDx=0;entryDy=0;entryPerimeter=0;" parent="1" source="6bDfexBDMjg7O7AECw8N-7" target="6bDfexBDMjg7O7AECw8N-1" edge="1">
          <mxGeometry relative="1" as="geometry" />
        </mxCell>
        <mxCell id="6bDfexBDMjg7O7AECw8N-22" style="edgeStyle=orthogonalEdgeStyle;rounded=0;orthogonalLoop=1;jettySize=auto;html=1;entryX=0;entryY=0.5;entryDx=0;entryDy=0;entryPerimeter=0;" parent="1" source="6bDfexBDMjg7O7AECw8N-9" target="6bDfexBDMjg7O7AECw8N-10" edge="1">
          <mxGeometry relative="1" as="geometry" />
        </mxCell>
        <mxCell id="6bDfexBDMjg7O7AECw8N-23" style="edgeStyle=orthogonalEdgeStyle;rounded=0;orthogonalLoop=1;jettySize=auto;html=1;entryX=0;entryY=0.5;entryDx=0;entryDy=0;entryPerimeter=0;" parent="1" source="6bDfexBDMjg7O7AECw8N-6" target="6bDfexBDMjg7O7AECw8N-3" edge="1">
          <mxGeometry relative="1" as="geometry" />
        </mxCell>
        <mxCell id="6bDfexBDMjg7O7AECw8N-29" value="" style="edgeStyle=orthogonalEdgeStyle;rounded=0;orthogonalLoop=1;jettySize=auto;html=1;startArrow=classic;startFill=1;endArrow=none;endFill=0;" parent="1" source="6bDfexBDMjg7O7AECw8N-25" target="6bDfexBDMjg7O7AECw8N-10" edge="1">
          <mxGeometry relative="1" as="geometry" />
        </mxCell>
        <object placeholders="1" c4Name="3d files storage" c4Type="Container" c4Technology="S3-based storage" c4Description="stores 3d files so that can be calculated" label="&lt;font style=&quot;font-size: 16px&quot;&gt;&lt;b&gt;%c4Name%&lt;/b&gt;&lt;/font&gt;&lt;div&gt;[%c4Type%: %c4Technology%]&lt;/div&gt;&lt;br&gt;&lt;div&gt;&lt;font style=&quot;font-size: 11px&quot;&gt;&lt;font color=&quot;#E6E6E6&quot;&gt;%c4Description%&lt;/font&gt;&lt;/div&gt;" id="6bDfexBDMjg7O7AECw8N-25">
          <mxCell style="rounded=1;whiteSpace=wrap;html=1;fontSize=11;labelBackgroundColor=none;fillColor=#23A2D9;fontColor=#ffffff;align=center;arcSize=10;strokeColor=#0E7DAD;metaEdit=1;resizable=0;points=[[0.25,0,0],[0.5,0,0],[0.75,0,0],[1,0.25,0],[1,0.5,0],[1,0.75,0],[0.75,1,0],[0.5,1,0],[0.25,1,0],[0,0.75,0],[0,0.5,0],[0,0.25,0]];" parent="1" vertex="1">
            <mxGeometry x="900" y="780" width="240" height="120" as="geometry" />
          </mxCell>
        </object>
        <mxCell id="6bDfexBDMjg7O7AECw8N-26" style="edgeStyle=orthogonalEdgeStyle;rounded=0;orthogonalLoop=1;jettySize=auto;html=1;entryX=0;entryY=0.5;entryDx=0;entryDy=0;entryPerimeter=0;" parent="1" source="6bDfexBDMjg7O7AECw8N-1" target="6bDfexBDMjg7O7AECw8N-25" edge="1">
          <mxGeometry relative="1" as="geometry">
            <Array as="points">
              <mxPoint x="650" y="830" />
            </Array>
          </mxGeometry>
        </mxCell>
        <mxCell id="6bDfexBDMjg7O7AECw8N-27" style="edgeStyle=orthogonalEdgeStyle;rounded=0;orthogonalLoop=1;jettySize=auto;html=1;entryX=0.25;entryY=0;entryDx=0;entryDy=0;entryPerimeter=0;exitX=0.25;exitY=1;exitDx=0;exitDy=0;exitPerimeter=0;" parent="1" source="6bDfexBDMjg7O7AECw8N-8" target="6bDfexBDMjg7O7AECw8N-25" edge="1">
          <mxGeometry relative="1" as="geometry">
            <mxPoint x="970" y="430" as="sourcePoint" />
            <mxPoint x="1170.08" y="790.96" as="targetPoint" />
            <Array as="points">
              <mxPoint x="960" y="400" />
            </Array>
          </mxGeometry>
        </mxCell>
        <mxCell id="6bDfexBDMjg7O7AECw8N-28" value="uploads files" style="edgeLabel;html=1;align=center;verticalAlign=middle;resizable=0;points=[];" parent="6bDfexBDMjg7O7AECw8N-27" vertex="1" connectable="0">
          <mxGeometry x="-0.3713" y="-2" relative="1" as="geometry">
            <mxPoint x="-8" y="-102" as="offset" />
          </mxGeometry>
        </mxCell>
        <object placeholders="1" c4Name="Seller" c4Type="Person" c4Description="Operates with order, confirms manufacturing for the user" label="&lt;font style=&quot;font-size: 16px&quot;&gt;&lt;b&gt;%c4Name%&lt;/b&gt;&lt;/font&gt;&lt;div&gt;[%c4Type%]&lt;/div&gt;&lt;br&gt;&lt;div&gt;&lt;font style=&quot;font-size: 11px&quot;&gt;&lt;font color=&quot;#cccccc&quot;&gt;%c4Description%&lt;/font&gt;&lt;/div&gt;" id="6bDfexBDMjg7O7AECw8N-30">
          <mxCell style="html=1;fontSize=11;dashed=0;whiteSpace=wrap;fillColor=#083F75;strokeColor=#06315C;fontColor=#ffffff;shape=mxgraph.c4.person2;align=center;metaEdit=1;points=[[0.5,0,0],[1,0.5,0],[1,0.75,0],[0.75,1,0],[0.5,1,0],[0.25,1,0],[0,0.75,0],[0,0.5,0]];resizable=0;" parent="1" vertex="1">
            <mxGeometry x="80" y="480" width="200" height="180" as="geometry" />
          </mxCell>
        </object>
        <mxCell id="6bDfexBDMjg7O7AECw8N-31" style="edgeStyle=orthogonalEdgeStyle;rounded=0;orthogonalLoop=1;jettySize=auto;html=1;entryX=0;entryY=0.25;entryDx=0;entryDy=0;entryPerimeter=0;" parent="1" source="6bDfexBDMjg7O7AECw8N-30" target="6bDfexBDMjg7O7AECw8N-9" edge="1">
          <mxGeometry relative="1" as="geometry" />
        </mxCell>
        <object placeholders="1" c4Name="MES db" c4Type="Container" c4Technology="PostgreSQL" c4Description="Holds information about orders, its assignments on operators and statuses from MES perspective" label="&lt;font style=&quot;font-size: 16px&quot;&gt;&lt;b&gt;%c4Name%&lt;/b&gt;&lt;/font&gt;&lt;div&gt;[%c4Type%:&amp;nbsp;%c4Technology%]&lt;/div&gt;&lt;br&gt;&lt;div&gt;&lt;font style=&quot;font-size: 11px&quot;&gt;&lt;font color=&quot;#E6E6E6&quot;&gt;%c4Description%&lt;/font&gt;&lt;/div&gt;" id="6bDfexBDMjg7O7AECw8N-32">
          <mxCell style="shape=cylinder3;size=15;whiteSpace=wrap;html=1;boundedLbl=1;rounded=0;labelBackgroundColor=none;fillColor=#23A2D9;fontSize=12;fontColor=#ffffff;align=center;strokeColor=#0E7DAD;metaEdit=1;points=[[0.5,0,0],[1,0.25,0],[1,0.5,0],[1,0.75,0],[0.5,1,0],[0,0.75,0],[0,0.5,0],[0,0.25,0]];resizable=0;" parent="1" vertex="1">
            <mxGeometry x="1414" y="1180" width="240" height="120" as="geometry" />
          </mxCell>
        </object>
        <mxCell id="6bDfexBDMjg7O7AECw8N-33" style="edgeStyle=orthogonalEdgeStyle;rounded=0;orthogonalLoop=1;jettySize=auto;html=1;" parent="1" source="6bDfexBDMjg7O7AECw8N-1" edge="1">
          <mxGeometry relative="1" as="geometry">
            <mxPoint x="1520" y="1180" as="targetPoint" />
            <Array as="points">
              <mxPoint x="1380" y="990" />
              <mxPoint x="1380" y="1120" />
              <mxPoint x="1520" y="1120" />
            </Array>
          </mxGeometry>
        </mxCell>
        <mxCell id="5C6CGMoX0PtdkF8rpxBX-11" value="" style="group;container=0;" parent="1" vertex="1" connectable="0">
          <mxGeometry x="1450" y="430" width="90" height="45.5" as="geometry" />
        </mxCell>
        <object placeholders="1" c4Name="Logstash" c4Type="Container" c4Technology="JRuby" c4Description="Collect logs and send to Elasticsearch" label="&lt;font style=&quot;font-size: 16px&quot;&gt;&lt;b&gt;%c4Name%&lt;/b&gt;&lt;/font&gt;&lt;div&gt;[%c4Type%: %c4Technology%]&lt;/div&gt;&lt;br&gt;&lt;div&gt;&lt;font style=&quot;font-size: 11px&quot;&gt;&lt;font color=&quot;#E6E6E6&quot;&gt;%c4Description%&lt;/font&gt;&lt;/div&gt;" id="5C6CGMoX0PtdkF8rpxBX-14">
          <mxCell style="rounded=1;whiteSpace=wrap;html=1;fontSize=11;labelBackgroundColor=none;fillColor=#e3c800;fontColor=#000000;align=center;arcSize=10;strokeColor=#B09500;metaEdit=1;resizable=0;points=[[0.25,0,0],[0.5,0,0],[0.75,0,0],[1,0.25,0],[1,0.5,0],[1,0.75,0],[0.75,1,0],[0.5,1,0],[0.25,1,0],[0,0.75,0],[0,0.5,0],[0,0.25,0]];" parent="1" vertex="1">
            <mxGeometry x="1410" y="790" width="240" height="120" as="geometry" />
          </mxCell>
        </object>
        <mxCell id="5C6CGMoX0PtdkF8rpxBX-16" value="" style="endArrow=classic;html=1;rounded=0;entryX=0;entryY=0.5;entryDx=0;entryDy=0;entryPerimeter=0;fillColor=#0050ef;strokeColor=#001DBC;strokeWidth=3;exitX=0;exitY=0.5;exitDx=0;exitDy=0;" parent="1" source="wv9wotfAVkHnm75RJb1T-1" target="5C6CGMoX0PtdkF8rpxBX-14" edge="1">
          <mxGeometry width="50" height="50" relative="1" as="geometry">
            <mxPoint x="1090" y="530" as="sourcePoint" />
            <mxPoint x="1420" y="830" as="targetPoint" />
            <Array as="points">
              <mxPoint x="1050" y="543" />
              <mxPoint x="1050" y="740" />
              <mxPoint x="1180" y="740" />
              <mxPoint x="1180" y="850" />
            </Array>
          </mxGeometry>
        </mxCell>
        <mxCell id="5C6CGMoX0PtdkF8rpxBX-17" value="" style="endArrow=classic;html=1;rounded=0;exitX=0.5;exitY=1;exitDx=0;exitDy=0;fillColor=#e3c800;strokeColor=#0000FF;strokeWidth=3;entryX=0;entryY=0.75;entryDx=0;entryDy=0;entryPerimeter=0;" parent="1" source="5C6CGMoX0PtdkF8rpxBX-1" target="5C6CGMoX0PtdkF8rpxBX-14" edge="1">
          <mxGeometry width="50" height="50" relative="1" as="geometry">
            <mxPoint x="1440" y="535" as="sourcePoint" />
            <mxPoint x="1320" y="840" as="targetPoint" />
            <Array as="points">
              <mxPoint x="1085" y="450" />
              <mxPoint x="1060" y="450" />
              <mxPoint x="1060" y="700" />
              <mxPoint x="1240" y="700" />
              <mxPoint x="1240" y="880" />
            </Array>
          </mxGeometry>
        </mxCell>
        <mxCell id="5C6CGMoX0PtdkF8rpxBX-18" value="" style="endArrow=classic;html=1;rounded=0;exitX=0.5;exitY=0;exitDx=0;exitDy=0;fillColor=#0050ef;strokeColor=#001DBC;strokeWidth=3;entryX=0.25;entryY=1;entryDx=0;entryDy=0;entryPerimeter=0;" parent="1" source="5C6CGMoX0PtdkF8rpxBX-9" target="5C6CGMoX0PtdkF8rpxBX-14" edge="1">
          <mxGeometry width="50" height="50" relative="1" as="geometry">
            <mxPoint x="1440" y="535" as="sourcePoint" />
            <mxPoint x="1250" y="560" as="targetPoint" />
            <Array as="points">
              <mxPoint x="585" y="800" />
              <mxPoint x="810" y="800" />
              <mxPoint x="810" y="940" />
              <mxPoint x="1470" y="940" />
            </Array>
          </mxGeometry>
        </mxCell>
        <object placeholders="1" c4Name="Elasticsearch" c4Type="Container" c4Technology="Java" c4Description="Store logs" label="&lt;font style=&quot;font-size: 16px&quot;&gt;&lt;b&gt;%c4Name%&lt;/b&gt;&lt;/font&gt;&lt;div&gt;[%c4Type%: %c4Technology%]&lt;/div&gt;&lt;br&gt;&lt;div&gt;&lt;font style=&quot;font-size: 11px&quot;&gt;&lt;font color=&quot;#E6E6E6&quot;&gt;%c4Description%&lt;/font&gt;&lt;/div&gt;" id="5C6CGMoX0PtdkF8rpxBX-19">
          <mxCell style="rounded=1;whiteSpace=wrap;html=1;fontSize=11;labelBackgroundColor=none;fillColor=#60a917;fontColor=#ffffff;align=center;arcSize=10;strokeColor=#2D7600;metaEdit=1;resizable=0;points=[[0.25,0,0],[0.5,0,0],[0.75,0,0],[1,0.25,0],[1,0.5,0],[1,0.75,0],[0.75,1,0],[0.5,1,0],[0.25,1,0],[0,0.75,0],[0,0.5,0],[0,0.25,0]];" parent="1" vertex="1">
            <mxGeometry x="1410" y="970" width="240" height="120" as="geometry" />
          </mxCell>
        </object>
        <mxCell id="5C6CGMoX0PtdkF8rpxBX-20" value="" style="endArrow=classic;html=1;rounded=0;exitX=0.5;exitY=1;exitDx=0;exitDy=0;exitPerimeter=0;fillColor=#e3c800;strokeColor=#B09500;strokeWidth=3;entryX=0.5;entryY=0;entryDx=0;entryDy=0;entryPerimeter=0;" parent="1" source="5C6CGMoX0PtdkF8rpxBX-14" target="5C6CGMoX0PtdkF8rpxBX-19" edge="1">
          <mxGeometry width="50" height="50" relative="1" as="geometry">
            <mxPoint x="1440" y="535" as="sourcePoint" />
            <mxPoint x="1600" y="960" as="targetPoint" />
            <Array as="points" />
          </mxGeometry>
        </mxCell>
        <object placeholders="1" c4Name="Kibana" c4Type="Container" c4Technology="TypeScript" c4Description="Elasticsearch UI" label="&lt;font style=&quot;font-size: 16px&quot;&gt;&lt;b&gt;%c4Name%&lt;/b&gt;&lt;/font&gt;&lt;div&gt;[%c4Type%: %c4Technology%]&lt;/div&gt;&lt;br&gt;&lt;div&gt;&lt;font style=&quot;font-size: 11px&quot;&gt;&lt;font color=&quot;#E6E6E6&quot;&gt;%c4Description%&lt;/font&gt;&lt;/div&gt;" id="5C6CGMoX0PtdkF8rpxBX-21">
          <mxCell style="rounded=1;whiteSpace=wrap;html=1;fontSize=11;labelBackgroundColor=none;fillColor=#EA6B66;align=center;arcSize=10;strokeColor=#BD7000;metaEdit=1;resizable=0;points=[[0.25,0,0],[0.5,0,0],[0.75,0,0],[1,0.25,0],[1,0.5,0],[1,0.75,0],[0.75,1,0],[0.5,1,0],[0.25,1,0],[0,0.75,0],[0,0.5,0],[0,0.25,0]];fontColor=#000000;" parent="1" vertex="1">
            <mxGeometry x="965" y="1180" width="240" height="120" as="geometry" />
          </mxCell>
        </object>
        <mxCell id="5C6CGMoX0PtdkF8rpxBX-22" value="" style="endArrow=classic;html=1;rounded=0;exitX=0.5;exitY=0;exitDx=0;exitDy=0;exitPerimeter=0;fillColor=#e3c800;strokeColor=#EA6B66;strokeWidth=3;entryX=0;entryY=0.5;entryDx=0;entryDy=0;entryPerimeter=0;" parent="1" source="5C6CGMoX0PtdkF8rpxBX-21" target="5C6CGMoX0PtdkF8rpxBX-19" edge="1">
          <mxGeometry width="50" height="50" relative="1" as="geometry">
            <mxPoint x="1440" y="535" as="sourcePoint" />
            <mxPoint x="1250" y="560" as="targetPoint" />
            <Array as="points">
              <mxPoint x="1085" y="1030" />
            </Array>
          </mxGeometry>
        </mxCell>
        <mxCell id="5C6CGMoX0PtdkF8rpxBX-23" value="" style="endArrow=classic;html=1;rounded=0;exitX=1;exitY=0.5;exitDx=0;exitDy=0;exitPerimeter=0;fillColor=#e3c800;strokeColor=#EA6B66;strokeWidth=3;entryX=0.25;entryY=1;entryDx=0;entryDy=0;entryPerimeter=0;" parent="1" source="VvX1JC_0PUtuRPCmkYyq-2" target="5C6CGMoX0PtdkF8rpxBX-21" edge="1">
          <mxGeometry width="50" height="50" relative="1" as="geometry">
            <mxPoint x="1270" y="1190" as="sourcePoint" />
            <mxPoint x="1380" y="1370" as="targetPoint" />
            <Array as="points">
              <mxPoint x="440" y="1270" />
              <mxPoint x="440" y="1430" />
              <mxPoint x="1025" y="1430" />
            </Array>
          </mxGeometry>
        </mxCell>
        <mxCell id="5C6CGMoX0PtdkF8rpxBX-1" value="" style="ellipse;whiteSpace=wrap;html=1;fillColor=#0050ef;fontColor=#ffffff;strokeColor=#001DBC;" parent="1" vertex="1">
          <mxGeometry x="1040" y="384.5" width="90" height="45.5" as="geometry" />
        </mxCell>
        <mxCell id="5C6CGMoX0PtdkF8rpxBX-2" value="Filebeat" style="text;html=1;align=center;verticalAlign=middle;whiteSpace=wrap;rounded=0;fontColor=#FFFFFF;" parent="1" vertex="1">
          <mxGeometry x="1055" y="397.25" width="60" height="22.75" as="geometry" />
        </mxCell>
        <mxCell id="5C6CGMoX0PtdkF8rpxBX-9" value="" style="ellipse;whiteSpace=wrap;html=1;fillColor=#0050ef;fontColor=#ffffff;strokeColor=#001DBC;" parent="1" vertex="1">
          <mxGeometry x="540" y="860" width="90" height="45.5" as="geometry" />
        </mxCell>
        <mxCell id="5C6CGMoX0PtdkF8rpxBX-10" value="Filebeat" style="text;html=1;align=center;verticalAlign=middle;whiteSpace=wrap;rounded=0;fontColor=#FFFFFF;" parent="1" vertex="1">
          <mxGeometry x="555" y="872.75" width="60" height="22.75" as="geometry" />
        </mxCell>
        <object placeholders="1" c4Name="Разработчики" c4Type="Person" c4Description="" label="&lt;font style=&quot;font-size: 16px&quot;&gt;&lt;b&gt;%c4Name%&lt;/b&gt;&lt;/font&gt;&lt;div&gt;[%c4Type%]&lt;/div&gt;&lt;br&gt;&lt;div&gt;&lt;font style=&quot;font-size: 11px&quot;&gt;&lt;font color=&quot;#cccccc&quot;&gt;%c4Description%&lt;/font&gt;&lt;/div&gt;" id="VvX1JC_0PUtuRPCmkYyq-2">
          <mxCell style="html=1;fontSize=11;dashed=0;whiteSpace=wrap;fillColor=#083F75;strokeColor=#06315C;fontColor=#ffffff;shape=mxgraph.c4.person2;align=center;metaEdit=1;points=[[0.5,0,0],[1,0.5,0],[1,0.75,0],[0.75,1,0],[0.5,1,0],[0.25,1,0],[0,0.75,0],[0,0.5,0]];resizable=0;" parent="1" vertex="1">
            <mxGeometry x="80" y="1180" width="200" height="180" as="geometry" />
          </mxCell>
        </object>
        <mxCell id="VvX1JC_0PUtuRPCmkYyq-7" value="Проверка логов для отладки ПО, выявления ошибок при инцидентах" style="text;html=1;align=center;verticalAlign=middle;whiteSpace=wrap;rounded=0;fontColor=#000000;" parent="1" vertex="1">
          <mxGeometry x="570" y="1400" width="220" height="30" as="geometry" />
        </mxCell>
        <mxCell id="wv9wotfAVkHnm75RJb1T-1" value="" style="ellipse;whiteSpace=wrap;html=1;fillColor=#0050ef;fontColor=#ffffff;strokeColor=#001DBC;" vertex="1" parent="1">
          <mxGeometry x="1115" y="520" width="90" height="45.5" as="geometry" />
        </mxCell>
        <mxCell id="wv9wotfAVkHnm75RJb1T-2" value="Filebeat" style="text;html=1;align=center;verticalAlign=middle;whiteSpace=wrap;rounded=0;fontColor=#FFFFFF;" vertex="1" parent="1">
          <mxGeometry x="1130" y="531.38" width="60" height="22.75" as="geometry" />
        </mxCell>
        <object placeholders="1" c4Name="Администраторы" c4Type="Person" c4Description="" label="&lt;font style=&quot;font-size: 16px&quot;&gt;&lt;b&gt;%c4Name%&lt;/b&gt;&lt;/font&gt;&lt;div&gt;[%c4Type%]&lt;/div&gt;&lt;br&gt;&lt;div&gt;&lt;font style=&quot;font-size: 11px&quot;&gt;&lt;font color=&quot;#cccccc&quot;&gt;%c4Description%&lt;/font&gt;&lt;/div&gt;" id="wv9wotfAVkHnm75RJb1T-3">
          <mxCell style="html=1;fontSize=11;dashed=0;whiteSpace=wrap;fillColor=#083F75;strokeColor=#06315C;fontColor=#ffffff;shape=mxgraph.c4.person2;align=center;metaEdit=1;points=[[0.5,0,0],[1,0.5,0],[1,0.75,0],[0.75,1,0],[0.5,1,0],[0.25,1,0],[0,0.75,0],[0,0.5,0]];resizable=0;" vertex="1" parent="1">
            <mxGeometry x="80" y="1440" width="200" height="180" as="geometry" />
          </mxCell>
        </object>
        <mxCell id="wv9wotfAVkHnm75RJb1T-4" value="" style="endArrow=none;html=1;rounded=0;exitX=1;exitY=0.75;exitDx=0;exitDy=0;exitPerimeter=0;fillColor=#e3c800;strokeColor=#EA6B66;strokeWidth=3;entryX=0.5;entryY=1;entryDx=0;entryDy=0;entryPerimeter=0;startArrow=classic;startFill=1;endFill=0;" edge="1" parent="1" source="VvX1JC_0PUtuRPCmkYyq-2" target="5C6CGMoX0PtdkF8rpxBX-21">
          <mxGeometry width="50" height="50" relative="1" as="geometry">
            <mxPoint x="290" y="1325" as="sourcePoint" />
            <mxPoint x="1270" y="1310" as="targetPoint" />
            <Array as="points">
              <mxPoint x="400" y="1315" />
              <mxPoint x="400" y="1480" />
              <mxPoint x="1085" y="1480" />
            </Array>
          </mxGeometry>
        </mxCell>
        <mxCell id="wv9wotfAVkHnm75RJb1T-5" value="Уведомления об инцидентах" style="text;html=1;align=center;verticalAlign=middle;whiteSpace=wrap;rounded=0;fontColor=#000000;" vertex="1" parent="1">
          <mxGeometry x="555" y="1450" width="220" height="30" as="geometry" />
        </mxCell>
        <mxCell id="wv9wotfAVkHnm75RJb1T-6" value="" style="endArrow=none;html=1;rounded=0;exitX=1;exitY=0.75;exitDx=0;exitDy=0;exitPerimeter=0;fillColor=#e3c800;strokeColor=#EA6B66;strokeWidth=3;entryX=0.5;entryY=1;entryDx=0;entryDy=0;entryPerimeter=0;startArrow=classic;startFill=1;endFill=0;" edge="1" parent="1" source="wv9wotfAVkHnm75RJb1T-3" target="5C6CGMoX0PtdkF8rpxBX-21">
          <mxGeometry width="50" height="50" relative="1" as="geometry">
            <mxPoint x="290" y="1325" as="sourcePoint" />
            <mxPoint x="1270" y="1310" as="targetPoint" />
            <Array as="points">
              <mxPoint x="400" y="1575" />
              <mxPoint x="400" y="1480" />
              <mxPoint x="1085" y="1480" />
            </Array>
          </mxGeometry>
        </mxCell>
        <mxCell id="wv9wotfAVkHnm75RJb1T-8" value="&lt;div&gt;В системе логгирования будут логи будут х&lt;span style=&quot;background-color: initial;&quot;&gt;раниться&lt;/span&gt;&lt;span style=&quot;background-color: initial;&quot;&gt;&amp;nbsp;&lt;/span&gt;&lt;span style=&quot;background-color: initial;&quot;&gt;за последние 10 дней&lt;/span&gt;&lt;span style=&quot;background-color: initial;&quot;&gt;&amp;nbsp;всех уровней (FATAL, ERROR, WARN, INFO, TRACE, DEBUG) со всех компонентов.&lt;/span&gt;&lt;/div&gt;&lt;div&gt;Логи за 31 день нужно хранить с уровнями FATAL, ERROR, WARN, INFO - это необходимо для разбора инцидентов с заказами.&lt;/div&gt;&lt;div&gt;&lt;br&gt;&lt;/div&gt;&lt;div&gt;Список логов с уровнем INFO:&lt;/div&gt;&lt;div&gt;Shop API:&lt;/div&gt;&lt;div&gt;- старт/стоп контейнера&lt;/div&gt;&lt;div&gt;- url, method, параметры запросов&lt;/div&gt;&lt;div&gt;- http статус, текст ошибки ответа на запрос&lt;/div&gt;&lt;div&gt;- результат загрузки 3D файла в S3&lt;/div&gt;&lt;div&gt;CRM API:&lt;/div&gt;&lt;div&gt;- старт/стоп контейнера&lt;/div&gt;&lt;div&gt;- url, method, параметры запросов&lt;/div&gt;&lt;div&gt;- http статус, текст ошибки ответа на запрос&lt;/div&gt;&lt;div&gt;- результат загрузки 3D файла в S3&lt;/div&gt;&lt;div&gt;- полученные сообщения из RabbitMQ&lt;/div&gt;&lt;div&gt;- отосланные сообщения в RabbitMQ&lt;/div&gt;&lt;div&gt;MES API:&lt;/div&gt;&lt;div&gt;- старт/стоп контейнера&lt;/div&gt;&lt;div&gt;- url, method, параметры запросов&lt;/div&gt;&lt;div&gt;- http статус, текст ошибки ответа на запрос&lt;/div&gt;&lt;div&gt;- результат получения 3D файла из S3&lt;/div&gt;&lt;div&gt;- полученные сообщения из RabbitMQ&lt;/div&gt;&lt;div&gt;- отосланные сообщения в RabbitMQ&lt;/div&gt;&lt;div&gt;Orders supervisor:&lt;/div&gt;&lt;div&gt;- старт/стоп контейнера&lt;/div&gt;&lt;div&gt;- запуск задачи проверки&lt;/div&gt;&lt;div&gt;- результат выполнения задачи проверки&lt;/div&gt;&lt;div&gt;&lt;br&gt;&lt;/div&gt;&lt;div&gt;&lt;span style=&quot;background-color: initial;&quot;&gt;С уровнем FATAL -&amp;nbsp;&lt;/span&gt;если контейнер аварийно завершает работу.&lt;br&gt;&lt;/div&gt;&lt;div&gt;&lt;span style=&quot;background-color: initial;&quot;&gt;С уровнем WARN -&amp;nbsp;&lt;/span&gt;если API возвращает статус отличный от 200, но не 500.&lt;/div&gt;&lt;div&gt;&lt;span style=&quot;background-color: initial;&quot;&gt;С уровнем ERROR -&amp;nbsp;&lt;/span&gt;если API возвращает статус 500.&lt;/div&gt;&lt;div&gt;С уровнем&amp;nbsp;&lt;span style=&quot;background-color: initial;&quot;&gt;TRACE - все запросы по CQRS.&lt;/span&gt;&lt;br&gt;&lt;/div&gt;&lt;div&gt;&lt;span style=&quot;background-color: initial;&quot;&gt;С уровнем&lt;/span&gt;&amp;nbsp;DEBUG - на усмотрение программистов, что будет необходимо для отладки.&lt;/div&gt;" style="text;html=1;align=left;verticalAlign=middle;whiteSpace=wrap;rounded=0;" vertex="1" parent="1">
          <mxGeometry x="1750" y="780" width="610" height="560" as="geometry" />
        </mxCell>
      </root>
    </mxGraphModel>
  </diagram>
</mxfile>
